HIERARCHY
ROOT joint_Root
{
	OFFSET 0.0 0.0 0.0
	CHANNELS 6 Xposition Yposition Zposition Zrotation Xrotation Yrotation 
	JOINT Hips
	{
		OFFSET -17.1583 93.1646 452.98
		CHANNELS 6 Xposition Yposition Zposition Zrotation Xrotation Yrotation 
		JOINT Spine
		{
			OFFSET 15.7357 0.0 0.0
			CHANNELS 6 Xposition Yposition Zposition Zrotation Xrotation Yrotation 
			JOINT Chest
			{
				OFFSET 8.98455 -0.406207 0.0
				CHANNELS 6 Xposition Yposition Zposition Zrotation Xrotation Yrotation 
				JOINT Neck
				{
					OFFSET 16.3773 0.0 0.0
					CHANNELS 6 Xposition Yposition Zposition Zrotation Xrotation Yrotation 
					JOINT Head
					{
						OFFSET 6.45672 0.0 0.0
						CHANNELS 6 Xposition Yposition Zposition Zrotation Xrotation Yrotation 
						End Site
						{
							OFFSET 0.0 0.0 0.0
						}
					}
				}
				JOINT Shoulder_L
				{
					OFFSET 12.9942 -0.242716 4.98039
					CHANNELS 6 Xposition Yposition Zposition Zrotation Xrotation Yrotation 
					JOINT UpperArm_L
					{
						OFFSET 5.34809 0.0 0.0
						CHANNELS 6 Xposition Yposition Zposition Zrotation Xrotation Yrotation 
						JOINT LowerArm_L
						{
							OFFSET 24.3286 1.87007e-05 0.0
							CHANNELS 6 Xposition Yposition Zposition Zrotation Xrotation Yrotation 
							JOINT Hand_L
							{
								OFFSET 22.2916 0.0 0.0
								CHANNELS 6 Xposition Yposition Zposition Zrotation Xrotation Yrotation 
								End Site
								{
									OFFSET 0.0 0.0 0.0
								}
							}
						}
					}
				}
				JOINT Shoulder_R
				{
					OFFSET 12.9945 -0.242716 -4.98039
					CHANNELS 6 Xposition Yposition Zposition Zrotation Xrotation Yrotation 
					JOINT UpperArm_R
					{
						OFFSET -5.34813 0.0 0.0
						CHANNELS 6 Xposition Yposition Zposition Zrotation Xrotation Yrotation 
						JOINT LowerArm_R
						{
							OFFSET -24.3289 0.000322201 0.0
							CHANNELS 6 Xposition Yposition Zposition Zrotation Xrotation Yrotation 
							JOINT Hand_R
							{
								OFFSET -22.2915 -0.000108084 0.0
								CHANNELS 6 Xposition Yposition Zposition Zrotation Xrotation Yrotation 
								End Site
								{
									OFFSET 0.0 0.0 0.0
								}
							}
						}
					}
				}
			}
		}
		JOINT UpperLeg_L
		{
			OFFSET -2.19248 -6.46944 0.0
			CHANNELS 6 Xposition Yposition Zposition Zrotation Xrotation Yrotation 
			JOINT LowerLeg_L
			{
				OFFSET 39.0811 0.0 -1.23785e-05
				CHANNELS 6 Xposition Yposition Zposition Zrotation Xrotation Yrotation 
				JOINT Foot_L
				{
					OFFSET 40.9854 0.0 -1.26872e-05
					CHANNELS 6 Xposition Yposition Zposition Zrotation Xrotation Yrotation 
					JOINT Toes_L
					{
						OFFSET 11.7543 0.0 0.0
						CHANNELS 6 Xposition Yposition Zposition Zrotation Xrotation Yrotation 
						End Site
						{
							OFFSET 0.0 0.0 0.0
						}
					}
				}
			}
		}
		JOINT UpperLeg_R
		{
			OFFSET -2.19251 6.46944 0.0
			CHANNELS 6 Xposition Yposition Zposition Zrotation Xrotation Yrotation 
			JOINT LowerLeg_R
			{
				OFFSET -39.0811 -0.00228153 -0.0401928
				CHANNELS 6 Xposition Yposition Zposition Zrotation Xrotation Yrotation 
				JOINT Foot_R
				{
					OFFSET -40.9854 0.0 0.0
					CHANNELS 6 Xposition Yposition Zposition Zrotation Xrotation Yrotation 
					JOINT Toes_R
					{
						OFFSET -11.7543 0.0 0.0
						CHANNELS 6 Xposition Yposition Zposition Zrotation Xrotation Yrotation 
						End Site
						{
							OFFSET 0.0 0.0 0.0
						}
					}
				}
			}
		}
	}
}
MOTION
Frames:	4
Frame Time:	0.0333333
0.000000 0.000000 0.000000 0.000000 0.000000 -0.000000 0.508768 88.178400 413.184000 -92.930900 -5.038420 159.491000 15.735700 0.000005 -0.000001 108.118000 84.416700 -107.575000 8.984550 -0.406207 -0.000000 2.835500 3.445860 1.000180 16.377300 -0.000001 -0.000001 -10.269300 -1.580590 2.522630 6.456720 -0.000001 -0.000000 -3.315720 -1.680580 -2.860100 12.994200 -0.242716 4.980390 -91.242200 4.232470 -73.627000 5.348090 -0.000007 -0.000001 -59.611500 -5.261910 5.409030 24.328600 0.000019 0.000005 1.460430 34.363700 -2.585750 22.291600 -0.000001 0.000005 13.763700 4.149930 21.674300 12.994500 -0.242716 -4.980390 89.953900 0.204985 -77.354900 -5.348130 -0.000001 -0.000004 -72.121500 5.374170 3.368080 -24.328900 0.000322 -0.000009 -0.153212 -0.270764 -31.694200 -22.291500 -0.000108 -0.000004 2.450730 5.415860 -3.224510 -2.192480 -6.469440 -0.000000 176.795000 3.192960 -45.876100 39.081100 -0.000007 -0.000012 0.829995 -0.897847 42.754200 40.985400 -0.000006 -0.000013 4.563690 10.036400 -74.295900 11.754300 -0.000000 0.000003 0.002346 0.063834 -13.987700 -2.192510 6.469440 -0.000001 -178.641000 3.851690 177.880000 -39.081100 -0.002282 -0.040193 0.114351 -0.123880 41.881200 -40.985400 0.000008 0.000006 -5.048340 1.545780 -19.630600 -11.754300 -0.000006 -0.000006 0.000471 0.159327 -10.111500
0.000000 0.000000 0.000000 0.000000 0.000000 -0.000000 0.034408 85.283600 405.379000 -94.433400 -5.842500 162.287000 15.735700 0.000005 -0.000001 95.620700 83.565000 -95.341600 8.984550 -0.406207 -0.000000 5.040070 1.251300 0.502489 16.377300 -0.000001 -0.000001 -10.516600 -1.330740 2.296720 6.456720 -0.000001 -0.000000 -4.664180 -0.949592 -2.926200 12.994200 -0.242716 4.980390 -91.683300 5.934320 -74.130700 5.348090 -0.000007 -0.000001 -61.113200 1.438900 -1.674960 24.328600 0.000019 0.000005 3.637520 37.011700 -6.023960 22.291600 -0.000001 0.000005 -7.954670 4.791980 10.917100 12.994500 -0.242716 -4.980390 89.584700 1.750730 -76.661600 -5.348130 -0.000001 -0.000004 -69.737100 0.165714 7.782480 -24.328900 0.000322 -0.000009 0.509180 2.101760 -14.209200 -22.291500 -0.000108 -0.000004 0.960091 5.150120 3.924550 -2.192480 -6.469440 -0.000000 174.959000 2.820970 -42.359800 39.081100 -0.000007 -0.000012 1.140530 -0.873106 52.569500 40.985400 -0.000006 -0.000013 7.477600 11.411300 -82.334600 11.754300 -0.000000 0.000003 0.000654 0.155767 -10.259500 -2.192510 6.469440 -0.000001 179.205000 4.942700 171.553000 -39.081100 -0.002282 -0.040193 0.278867 -0.149529 61.524500 -40.985400 0.000008 0.000006 -5.221520 -3.616550 -23.441900 -11.754300 -0.000006 -0.000006 0.000882 0.151196 -10.441500
0.000000 0.000000 0.000000 0.000000 0.000000 -0.000000 -0.408531 83.166100 398.280000 -95.873600 -5.328290 163.683000 15.735700 0.000005 -0.000001 85.769400 82.788000 -85.877800 8.984550 -0.406207 -0.000000 6.618530 -1.059670 -0.155402 16.377300 -0.000001 -0.000001 -11.461600 -1.242830 2.248690 6.456720 -0.000001 -0.000000 -5.824030 0.878325 -3.440780 12.994200 -0.242716 4.980390 -91.531300 5.943340 -75.524300 5.348090 -0.000007 -0.000001 -61.842000 10.124300 -5.756380 24.328600 0.000019 0.000005 13.990700 36.942900 -22.512200 22.291600 -0.000001 0.000005 -19.201000 5.144340 4.078140 12.994500 -0.242716 -4.980390 89.361300 2.361890 -74.863700 -5.348130 -0.000001 -0.000004 -64.736000 -5.703950 13.822700 -24.328900 0.000322 -0.000009 1.956530 18.133900 -6.299710 -22.291500 -0.000108 -0.000004 3.823450 5.066600 5.849420 -2.192480 -6.469440 -0.000000 173.562000 3.553230 -37.168700 39.081100 -0.000007 -0.000012 1.478730 -0.967630 56.807700 40.985400 -0.000006 -0.000013 8.438220 9.990440 -89.797000 11.754300 -0.000000 0.000003 0.000214 0.163939 -9.927720 -2.192510 6.469440 -0.000001 176.744000 5.330020 160.649000 -39.081100 -0.002282 -0.040193 0.417119 -0.075282 79.699900 -40.985400 0.000008 0.000006 -2.960850 -10.066200 -25.657300 -11.754300 -0.000006 -0.000006 0.001143 0.145503 -10.672600
0.000000 0.000000 0.000000 0.000000 0.000000 -0.000000 -0.636842 82.439000 391.188000 -95.261500 -3.269720 164.561000 15.735700 0.000005 -0.000001 75.713100 82.327400 -75.728000 8.984550 -0.406207 -0.000000 7.115880 -3.773460 0.204989 16.377300 -0.000001 -0.000001 -11.325000 0.403253 1.715170 6.456720 -0.000001 -0.000000 -5.456250 3.418600 -3.375540 12.994200 -0.242716 4.980390 -91.389300 5.255630 -75.169100 5.348090 -0.000007 -0.000001 -61.223500 12.028000 -7.397190 24.328600 0.000019 0.000005 26.897100 32.281500 -43.509500 22.291600 -0.000001 0.000005 -12.103500 4.937980 8.331610 12.994500 -0.242716 -4.980390 89.637700 1.300930 -74.437700 -5.348130 -0.000001 -0.000004 -59.296700 -8.682100 19.884700 -24.328900 0.000322 -0.000009 1.677400 26.571400 -3.748110 -22.291500 -0.000108 -0.000004 9.829060 5.003590 7.229800 -2.192480 -6.469440 -0.000000 173.800000 1.741430 -29.687200 39.081100 -0.000007 -0.000012 1.597510 -1.115390 55.085600 40.985400 -0.000006 -0.000013 9.024880 9.410640 -95.058000 11.754300 -0.000000 0.000003 0.000561 0.157579 -10.185900 -2.192510 6.469440 -0.000001 176.521000 2.840640 147.976000 -39.081100 -0.002282 -0.040193 0.338124 0.013415 92.309100 -40.985400 0.000008 0.000006 -1.737760 -10.556500 -29.629400 -11.754300 -0.000006 -0.000006 0.001229 0.143497 -10.754000
